<svg xmlns="http://www.w3.org/2000/svg" viewBox="0 0 512 512"><path d="M452.923 0H59.077C50.92 0 44.308 6.613 44.308 14.769v250.24c0 35.812 9.177 71.299 26.537 102.622 17.361 31.324 42.59 57.912 72.958 76.894l104.369 65.231c2.395 1.497 5.111 2.245 7.828 2.245s5.433-.748 7.828-2.245l104.369-65.231c30.368-18.98 55.597-45.57 72.958-76.894 17.361-31.323 26.537-66.809 26.537-102.622V14.769C467.692 6.613 461.08 0 452.923 0z" fill="#00cc76"/><path d="M452.923 0H256v512c2.717 0 5.433-.748 7.828-2.245l104.369-65.231c30.368-18.98 55.597-45.57 72.958-76.894 17.361-31.323 26.537-66.809 26.537-102.622V14.769C467.692 6.613 461.08 0 452.923 0z" fill="#00aa63"/><path d="M393.846 59.077H118.154c-8.157 0-14.769 6.613-14.769 14.769v191.163c0 25.818 6.616 51.401 19.131 73.983a153.002 153.002 0 0052.597 55.435l73.058 45.662a14.755 14.755 0 007.828 2.245c2.717 0 5.433-.748 7.828-2.245l73.058-45.662a152.997 152.997 0 0052.598-55.435 152.985 152.985 0 0019.132-73.983V73.846c0-8.156-6.612-14.769-14.769-14.769z" fill="#edf6ff"/><path d="M393.846 59.077H256v383.257c2.717 0 5.433-.748 7.828-2.245l73.058-45.662a152.997 152.997 0 0052.598-55.435 152.996 152.996 0 0019.131-73.983V73.846c0-8.156-6.612-14.769-14.769-14.769z" fill="#d7e7f4"/><path d="M315.077 208.6c0-23.413-19.048-42.462-42.462-42.462h-1.846v-18.462c0-8.157-6.613-14.769-14.769-14.769s-14.769 6.613-14.769 14.769v18.462h-29.538c-8.157 0-14.769 6.613-14.769 14.769v110.77c0 8.157 6.613 14.769 14.769 14.769h29.538v18.462c0 8.157 6.613 14.769 14.769 14.769s14.769-6.613 14.769-14.769v-18.462h1.846c23.413 0 42.462-19.048 42.462-42.462 0-10.575-3.895-20.252-10.313-27.692 6.418-7.441 10.313-17.118 10.313-27.692zm-88.615-12.923h46.154c7.126 0 12.923 5.797 12.923 12.923s-5.797 12.923-12.923 12.923h-46.154v-25.846zm46.153 81.23h-46.154v-25.846h46.154c7.126 0 12.923 5.797 12.923 12.923s-5.797 12.923-12.923 12.923z" fill="#8cdc52"/><path d="M272.615 195.677c7.126 0 12.923 5.797 12.923 12.923s-5.797 12.923-12.923 12.923H256v29.538h16.615c7.126 0 12.923 5.797 12.923 12.923s-5.797 12.923-12.923 12.923H256v62.769c8.157 0 14.769-6.613 14.769-14.769v-18.462h1.846c23.413 0 42.462-19.048 42.462-42.462 0-10.575-3.895-20.252-10.313-27.692 6.419-7.441 10.313-17.118 10.313-27.692 0-23.413-19.048-42.462-42.462-42.462h-1.846v-18.462c0-8.157-6.613-14.769-14.769-14.769v62.769l16.615.002z" fill="#73b73d"/></svg>