<svg height="512pt" viewBox="-20 0 511 512" width="512pt" xmlns="http://www.w3.org/2000/svg"><path d="M432.727 220.762h39.293v30h-39.293zm.207-115.883l15 25.98-34.028 19.649-15-25.98zM341.14 24.082l25.981 15-19.644 34.031-25.98-15zm0 0" fill="#fdae02"/><path d="M131.371 24.082l19.645 34.031-25.98 15-19.645-34.031zm-91.785 80.805l34.027 19.648-15 25.98-34.027-19.648zM.5 220.762h39.293v30H.5zm0 0" fill="#fdcb02"/><path d="M251.262 0h-15l-10.668 21.332 10.668 17.961h15zm0 0" fill="#fdae02"/><path d="M221.262 0h15v39.293h-15zm0 0" fill="#fdcb02"/><path d="M236.262 364.121l-10.668 73.211L236.262 512c40.77 0 73.937-33.168 73.937-73.941 0-40.77-33.168-73.938-73.937-73.938zm0 0" fill="#32393f"/><path d="M162.32 438.059c0 40.773 33.168 73.941 73.942 73.941V364.121c-40.774 0-73.942 33.168-73.942 73.938zm0 0" fill="#575f64"/><path d="M236.262 83.234l-21.336 151.434 21.336 160 93.586-31.895c38.875-29.34 61.855-75.144 61.855-124.097 0-85.711-69.73-155.442-155.441-155.442zm0 0" fill="#fdb602"/><path d="M80.816 238.676c0 48.953 22.98 94.758 61.856 124.097l93.59 31.895V83.234c-85.715 0-155.446 69.73-155.446 155.442zm0 0" fill="#fdcb02"/><path d="M239.457 206.574c10.004 0 20.664 2.79 31.98 8.531l11.645-28.046c-9.348-5.246-21.156-8.364-33.293-9.512V160h-13.527l-10.668 32 10.668 14.684c.996-.067 2.047-.11 3.195-.11zm-3.195 14.489l-10.668 13.605 10.668 18.602c7.898 1.8 13.527 3.785 13.527 8.082 0 3.765-3.613 6.023-13.527 6.214l-10.668 31.102 10.668 74.664h15v-77.656c24.437-4.758 36.742-19.91 36.742-37.274 0-30.699-33.402-33.086-51.742-37.34zm0 0" fill="#fee686"/><path d="M226.664 177.875c-26.894 3.773-40.344 19.352-40.344 37.887 0 30.058 31.301 33.265 49.942 37.508v-32.208c-6.942-1.609-11.727-3.488-11.727-7.269 0-3.535 2.93-6.535 11.727-7.11V160h-9.598zm8.203 89.711c-12.629 0-27.062-4.102-37.887-10.496l-12.46 28.207c8.753 5.398 22.308 9.492 36.742 11.023v77.016h15v-105.77c-.457.008-.91.02-1.395.02zm0 0" fill="#fff7d7"/><path d="M329.848 362h-93.586l-10.668 43.332 10.668 36.336h93.586zm0 0" fill="#d3d3d8"/><path d="M142.672 362h93.59v79.664h-93.59zm0 0" fill="#e2e2e7"/></svg>