<svg height="512" viewBox="0 0 24 24" width="512" xmlns="http://www.w3.org/2000/svg"><path d="M12 24l-.192-.025C11.71 23.949 2 21.276 2 12.175V4.174c0-.315.195-.594.49-.703L11.74.047a.739.739 0 01.52 0l9.25 3.424c.295.109.49.388.49.703v8.001c0 9.102-9.71 11.774-9.808 11.8z" fill="#2196f3"/><path d="M12 0a.751.751 0 00-.26.047L2.49 3.471a.748.748 0 00-.49.703v8.001c0 9.102 9.71 11.774 9.808 11.8L12 24z" fill="#1d83d4"/><g fill="#fff"><path d="M14.5 15h-.75a.75.75 0 01-.75-.75v-4.5a.75.75 0 01.75-.75h.75c1.654 0 3 1.346 3 3s-1.346 3-3 3zm0-4.5v3c.827 0 1.5-.673 1.5-1.5s-.673-1.5-1.5-1.5zM10.25 15a.75.75 0 01-.75-.75V11a.5.5 0 00-1 0v3.25a.75.75 0 01-1.5 0V11c0-1.104.897-2 2-2s2 .896 2 2v3.25a.75.75 0 01-.75.75z"/><path d="M10.25 13.5h-2.5a.75.75 0 010-1.5h2.5a.75.75 0 010 1.5z"/></g><path d="M17.5 12H16c0 .827-.673 1.5-1.5 1.5V12H13v2.25c0 .414.336.75.75.75h.75c1.654 0 3-1.346 3-3zm-6.5.75a.75.75 0 01-.75.75H9.5v.75a.75.75 0 001.5 0zM8.5 12H7v2.25a.75.75 0 001.5 0v-.75h-.75a.75.75 0 010-1.5zm2.5 0H9.5h.75a.75.75 0 01.75.75z" fill="#dedede"/><path d="M10.25 12h-2.5a.75.75 0 000 1.5h2.5a.75.75 0 000-1.5z" fill="#dedede"/></svg>