<svg width="284" height="24" xmlns="http://www.w3.org/2000/svg"><path d="M284 11.088s-7.313 3.024-14.025 3.326c-6.812.302-12.622 0-20.937-1.512-11.32-2.016-33.158-10.18-44.778-5.745-11.62 4.435-12.122 4.636-18.032 7.459-6.612 3.225-20.035 9.676-36.665 9.374-17.73-.303-49.888-16.733-63.11-15.926-1.403.1-6.612.806-10.52 2.016-3.806 1.21-9.416 3.83-17.03 4.737-3.205.403-8.314 1.109-14.224.907-1.503-.1-6.311-.403-12.022-1.612-5.71-1.21-11.019-3.125-15.827-3.73-6.713-.721-11.815-.29-14.56.098-1.475.21-2.27.608-2.27.608V0h284v11.088z" fill="#f5f8fb"/></svg>