<svg height="512" width="512" xmlns="http://www.w3.org/2000/svg"><path d="M462.571 112.143c-27.255 0-49.429 22.174-49.429 49.429v30c0 10.713-8.716 19.429-19.429 19.429s-19.429-8.716-19.429-19.429V49.429C374.285 22.174 352.112 0 324.857 0s-49.429 22.174-49.429 49.429v142.143c0 10.713-8.716 19.429-19.429 19.429l-45 45 45 45c10.713 0 19.429 8.716 19.429 19.429v97.143c0 27.255 22.174 49.429 49.429 49.429s49.428-22.174 49.428-49.429V320.43c0-10.713 8.716-19.429 19.429-19.429s19.429 8.716 19.429 19.429v30c0 27.255 22.174 49.429 49.429 49.429S512 377.684 512 350.429V161.571c0-27.255-22.174-49.428-49.429-49.428z" fill="#0ca8ed"/><path d="M236.571 191.571V94.429c0-27.255-22.173-49.429-49.428-49.429s-49.429 22.174-49.429 49.429v97.143c0 10.713-8.716 19.429-19.429 19.429s-19.428-8.716-19.428-19.429v-30c0-27.255-22.173-49.429-49.428-49.429S0 134.316 0 161.571v188.857c0 27.255 22.174 49.429 49.429 49.429s49.428-22.174 49.428-49.429v-30c0-10.713 8.715-19.429 19.428-19.429s19.429 8.716 19.429 19.429v142.143c0 27.255 22.173 49.429 49.428 49.429s49.429-22.174 49.429-49.429V320.429c0-10.713 8.716-19.429 19.429-19.429v-90c-10.713 0-19.429-8.716-19.429-19.429z" fill="#45c5ff"/></svg>