<svg xmlns="http://www.w3.org/2000/svg" viewBox="0 0 512 512"><g fill="#4caf50"><path d="M306.347 131.264a10.667 10.667 0 00-7.68-3.264h-85.333a10.667 10.667 0 00-7.68 3.264C190.059 147.413 53.333 290.859 53.333 352c0 88.235 90.923 160 202.667 160s202.667-71.765 202.667-160c0-61.141-136.726-204.587-152.32-220.736z"/><path d="M392 14.272c-17.771-20.096-64 6.272-90.539 24.128C289.301 21.12 271.296 0 256 0s-33.301 21.12-45.461 38.4C184.064 20.523 137.749-5.845 120 14.272a26.862 26.862 0 00-6.4 20.608c3.435 39.509 83.861 104.811 93.013 112.107a10.665 10.665 0 006.72 2.347h85.333a10.666 10.666 0 006.656-2.325c9.152-7.317 89.6-72.533 93.013-112.107A26.791 26.791 0 00392 14.272z"/></g><path d="M341.333 149.333H170.667c-5.891 0-10.667-4.776-10.667-10.667S164.776 128 170.667 128h170.667c5.891 0 10.667 4.776 10.667 10.667s-4.777 10.666-10.668 10.666z" fill="#388e3c"/><g fill="#fafafa"><path d="M256 426.667c-25.365 2.505-48.469-14.703-53.333-39.723-.495-5.891 3.88-11.068 9.771-11.563 5.891-.495 11.068 3.88 11.563 9.771.939 11.136 15.296 20.181 32 20.181 17.365 0 32-9.771 32-21.333 0-10.411-10.112-17.067-31.808-21.12l-2.325-.427c-34.624-6.4-51.2-20.544-51.2-42.453 3.337-26.292 26.95-45.182 53.333-42.667 25.365-2.505 48.469 14.703 53.333 39.723.495 5.891-3.88 11.068-9.771 11.563-5.891.495-11.068-3.88-11.563-9.771-.896-11.136-15.253-20.181-32-20.181-17.365 0-32 9.771-32 21.333 0 10.411 10.133 17.067 31.851 21.12l2.347.448c34.56 6.4 51.2 20.523 51.2 42.453-3.349 26.311-26.998 45.199-53.398 42.646z"/><path d="M256 448c-5.891 0-10.667-4.776-10.667-10.667V266.667c0-5.891 4.776-10.667 10.667-10.667s10.667 4.776 10.667 10.667v170.667c0 5.89-4.776 10.666-10.667 10.666z"/></g></svg>